<?xml version="1.0" encoding="UTF-8"?>
<svg version="1.1" xmlns="http://www.w3.org/2000/svg" width="256" height="256">
<path d="M0 0 C1.80479453 -0.00735137 3.60958437 -0.01594069 5.41436768 -0.02566528 C10.2883756 -0.04777476 15.16221395 -0.05081738 20.03626513 -0.04891777 C24.11661005 -0.04879761 28.19691963 -0.05738017 32.27725464 -0.06569529 C41.90833074 -0.0848904 51.53932018 -0.08782699 61.17041016 -0.08105469 C71.08223173 -0.07441294 80.99368126 -0.09729271 90.9054274 -0.13436842 C99.43912115 -0.16512263 107.97269554 -0.17641936 116.50644356 -0.1725316 C121.59288993 -0.17047046 126.67904648 -0.17584545 131.76543999 -0.20042419 C136.55012535 -0.22278427 141.33420768 -0.22073691 146.11889648 -0.20049667 C147.86671994 -0.19710324 149.61458475 -0.20210321 151.36235237 -0.21648026 C160.62418811 -0.28736461 168.0895482 0.04869285 176.58239841 4.25014496 C178.74775155 5.31584171 180.62678692 5.87515889 182.95922852 6.41992188 C184.9744902 7.38879769 186.97756818 8.38405397 188.95922852 9.41992188 C188.95922852 10.07992188 188.95922852 10.73992188 188.95922852 11.41992188 C189.54188477 11.53980469 190.12454102 11.6596875 190.72485352 11.78320312 C194.36727235 12.82116514 197.33430774 14.6865333 199.95922852 17.41992188 C200.39672852 20.73242187 200.39672852 20.73242187 199.95922852 23.41992188 C199.39333008 22.98679687 198.82743164 22.55367187 198.24438477 22.10742188 C197.5109082 21.55054687 196.77743164 20.99367188 196.02172852 20.41992188 C194.92538086 19.58460937 194.92538086 19.58460937 193.80688477 18.73242188 C192.20108483 17.32340242 192.20108483 17.32340242 190.95922852 17.41992188 C191.35754883 17.96519531 191.75586914 18.51046875 192.16625977 19.07226562 C192.69606445 19.82636719 193.22586914 20.58046875 193.77172852 21.35742188 C194.29379883 22.08832031 194.81586914 22.81921875 195.35375977 23.57226562 C200.7872693 33.20980444 200.39945507 42.79355074 200.37915039 53.5090332 C200.386498 55.34308893 200.39508623 57.17714005 200.40481567 59.01118469 C200.42696851 63.97415033 200.42996545 68.93694961 200.42806816 73.8999579 C200.42794816 78.05227676 200.43652436 82.20456076 200.44484568 86.35686988 C200.46405766 96.15859138 200.46697174 105.96022772 200.46020508 115.76196289 C200.45356711 125.85210392 200.47642401 135.94187914 200.51351881 146.031946 C200.54427234 154.7142178 200.55556967 163.39637225 200.551682 172.07869738 C200.5496202 177.25571548 200.55500543 182.43244885 200.57957458 187.60941505 C200.60193248 192.4810726 200.59988901 197.35213784 200.57964706 202.22379875 C200.57625288 204.00387157 200.5812569 205.78398497 200.59563065 207.56400299 C200.67312324 217.87845866 200.09070045 226.15873353 194.95922852 235.41992188 C194.4508419 236.3512988 193.94245529 237.28267572 193.41866302 238.24227619 C192.93704964 238.96089927 192.45543625 239.67952234 191.95922852 240.41992188 C191.29922852 240.41992188 190.63922852 240.41992188 189.95922852 240.41992188 C189.5628418 241.31710938 189.5628418 241.31710938 189.15844727 242.23242188 C185.3294396 249.21693097 176.27410732 254.03556317 168.95922852 256.41992188 C166.28611824 256.60975688 163.71845023 256.69860815 161.04679871 256.68734741 C160.25596195 256.69187853 159.46512519 256.69640964 158.65032369 256.70107806 C156.00347651 256.71372635 153.35683498 256.71210141 150.70996094 256.71044922 C148.81089514 256.71643422 146.91183177 256.7232397 145.01277161 256.73080444 C139.85565721 256.74847501 134.69860917 256.75316029 129.54146743 256.75443602 C126.31865165 256.75585763 123.09585274 256.76012744 119.87304115 256.76543045 C108.62726393 256.78393456 97.38153413 256.79210063 86.13574219 256.79052734 C75.65712818 256.789326 65.17872018 256.81042607 54.7001583 256.84201467 C45.70042172 256.86817728 36.70075241 256.87889464 27.7009781 256.87761652 C22.32732898 256.87710687 16.9538629 256.88279222 11.58025169 256.90397263 C6.52488718 256.92335452 1.46988032 256.9234797 -3.5854969 256.90893936 C-5.4381996 256.90685008 -7.29092467 256.91155927 -9.14358902 256.92366028 C-11.67860772 256.93914234 -14.2123977 256.92978574 -16.74739075 256.91439819 C-17.47552139 256.92468532 -18.20365203 256.93497245 -18.95384723 256.9455713 C-24.53661647 256.87100513 -28.1896528 255.16352823 -33.04077148 252.41992188 C-32.71077148 252.74992188 -32.38077148 253.07992187 -32.04077148 253.41992188 C-31.71077148 254.40992188 -31.38077148 255.39992187 -31.04077148 256.41992188 C-34.16577148 256.91992188 -34.16577148 256.91992188 -38.04077148 256.41992188 C-43.07271542 252.11742435 -45.78481769 245.29632676 -48.58764648 239.44726562 C-50.30753889 235.86415644 -52.17399665 232.36704803 -54.06030273 228.86914062 C-56.23933598 223.42589821 -56.18951382 217.541469 -56.1879425 211.74946594 C-56.19161919 211.00874523 -56.19529588 210.26802451 -56.19908398 209.50485772 C-56.21003791 207.03944545 -56.21395043 204.57407544 -56.21777344 202.10864258 C-56.22404429 200.3339983 -56.23069164 198.55935532 -56.23768616 196.78471375 C-56.25865266 190.97171938 -56.26908071 185.15872496 -56.27905273 179.34570312 C-56.28310288 177.33910801 -56.28721988 175.33251304 -56.29140282 173.3259182 C-56.31043717 163.89767852 -56.32467261 154.46944658 -56.33301479 145.0411914 C-56.34278484 134.1805823 -56.36910577 123.32017712 -56.40951568 112.45963985 C-56.43972909 104.04918796 -56.45448856 95.63879438 -56.4577958 87.22828931 C-56.46014 82.21222849 -56.46901861 77.19638598 -56.49425697 72.18038368 C-56.51763481 67.45822429 -56.52173208 62.73642549 -56.51149559 58.0142231 C-56.5110025 56.28897142 -56.51725543 54.56370138 -56.53105164 52.83850479 C-56.65008882 37.06021474 -53.7697318 24.56386617 -42.79077148 12.73242188 C-30.37995927 1.00202699 -16.25570158 -0.03145584 0 0 Z " fill="#3596E9" transform="translate(56.040771484375,-0.419921875)"/>
<path d="M0 0 C3.47065399 3.47065399 4.90575431 5.86905171 5.3125 10.75 C5.26400872 16.08404111 2.68884944 19.31115056 -1 23 C-1.99 23 -2.98 23 -4 23 C-4 28.94 -4 34.88 -4 41 C-2.6682373 40.97905273 -1.33647461 40.95810547 0.03564453 40.93652344 C4.98914791 40.86397821 9.94260456 40.81814714 14.89648438 40.78027344 C17.03816634 40.76019112 19.1797937 40.73291963 21.32128906 40.69824219 C24.40443415 40.64957602 27.48685262 40.6269971 30.5703125 40.609375 C31.52366486 40.58872986 32.47701721 40.56808472 33.45925903 40.54681396 C39.31816752 40.54484822 42.50485771 41.16383611 47 45 C50.8724014 49.27299465 51.12950017 53.12198561 51.0625 58.75 C51.05347656 59.73484375 51.04445312 60.7196875 51.03515625 61.734375 C51.01775391 62.85585937 51.01775391 62.85585937 51 64 C52.953125 63.83723958 54.90625 63.67447917 56.859375 63.51171875 C59 64 59 64 61.23828125 65.73828125 C63.99185457 70.83636045 63.53841762 75.80303739 63.4375 81.5 C63.44458984 82.62792969 63.45167969 83.75585938 63.45898438 84.91796875 C63.37663517 95.62336483 63.37663517 95.62336483 59 100 C56.32941149 100.14115161 53.67567762 100.04247107 51 100 C51.04640625 101.15757813 51.0928125 102.31515625 51.140625 103.5078125 C51.17816248 105.04684906 51.21456051 106.5859137 51.25 108.125 C51.28351563 108.88554687 51.31703125 109.64609375 51.3515625 110.4296875 C51.46502979 117.01079019 49.31945153 120.39940283 44.9375 125.3125 C40.88589279 128.84131919 36.10986314 128.16127962 31.03393555 128.17700195 C30.11654602 128.18357315 29.19915649 128.19014435 28.25396729 128.19691467 C25.21488362 128.21664229 22.17584934 128.22830855 19.13671875 128.23828125 C18.09886545 128.24235678 17.06101215 128.2464323 15.99170876 128.25063133 C10.49943872 128.27148888 5.00719365 128.28579249 -0.48510742 128.29516602 C-6.15800255 128.30623518 -11.83050595 128.34064205 -17.50326252 128.38033772 C-21.86560293 128.40647894 -26.2278496 128.4148556 -30.59026146 128.41844749 C-32.6814355 128.42331918 -34.7726052 128.43494966 -36.86370277 128.45348549 C-39.79136881 128.47782552 -42.71801577 128.47692126 -45.64575195 128.4699707 C-46.50778732 128.48278076 -47.36982269 128.49559082 -48.25798035 128.50878906 C-53.66092091 128.46208293 -56.68987813 127.55801443 -61 124 C-66.27304355 118.30398505 -65.3641766 110.43724817 -65.140625 103.21875 C-65.09421875 102.1565625 -65.0478125 101.094375 -65 100 C-66.28003906 100.02707031 -67.56007813 100.05414063 -68.87890625 100.08203125 C-72.7578125 100.1640625 -72.7578125 100.1640625 -74.9375 98.6875 C-78.12858488 93.61930637 -77.26382048 87.38865566 -77.3125 81.625 C-77.35600586 79.91957031 -77.35600586 79.91957031 -77.40039062 78.1796875 C-77.46382702 69.86463968 -77.46382702 69.86463968 -75.24609375 65.73046875 C-72.77513932 63.82675951 -71.81296579 63.43225285 -68.75 63.6875 C-67.5125 63.790625 -66.275 63.89375 -65 64 C-65.05800781 63.2265625 -65.11601563 62.453125 -65.17578125 61.65625 C-65.45141089 55.29314298 -65.18951407 50.94642554 -61.58203125 45.62109375 C-58.10490696 42.05811454 -55.14844025 40.81111821 -50.2097168 40.65942383 C-48.28948527 40.65989648 -46.36921089 40.67670764 -44.44921875 40.70703125 C-43.43527542 40.71127609 -42.42133209 40.71552094 -41.37666321 40.71989441 C-38.14666901 40.73665141 -34.91730478 40.77429878 -31.6875 40.8125 C-29.49414965 40.82755066 -27.3007895 40.8412384 -25.10742188 40.85351562 C-19.7380395 40.8865453 -14.36912647 40.93830772 -9 41 C-9 35.06 -9 29.12 -9 23 C-10.65 22.67 -12.3 22.34 -14 22 C-17.92997765 17.74252421 -19.37308193 14.95896016 -19.27734375 9.09765625 C-18.81370299 5.59096486 -17.30716755 3.61074223 -15 1 C-9.95987544 -2.75079037 -5.58173342 -2.37701195 0 0 Z " fill="#F9BD14" transform="translate(135,21)"/>
<path d="M0 0 C3.47065399 3.47065399 4.90575431 5.86905171 5.3125 10.75 C5.26400872 16.08404111 2.68884944 19.31115056 -1 23 C-1.99 23 -2.98 23 -4 23 C-4 28.94 -4 34.88 -4 41 C-2.6682373 40.97905273 -1.33647461 40.95810547 0.03564453 40.93652344 C4.98914791 40.86397821 9.94260456 40.81814714 14.89648438 40.78027344 C17.03816634 40.76019112 19.1797937 40.73291963 21.32128906 40.69824219 C24.40443415 40.64957602 27.48685262 40.6269971 30.5703125 40.609375 C31.52366486 40.58872986 32.47701721 40.56808472 33.45925903 40.54681396 C39.31816752 40.54484822 42.50485771 41.16383611 47 45 C50.8724014 49.27299465 51.12950017 53.12198561 51.0625 58.75 C51.05347656 59.73484375 51.04445312 60.7196875 51.03515625 61.734375 C51.01775391 62.85585937 51.01775391 62.85585937 51 64 C52.953125 63.83723958 54.90625 63.67447917 56.859375 63.51171875 C59 64 59 64 61.23828125 65.73828125 C63.99185457 70.83636045 63.53841762 75.80303739 63.4375 81.5 C63.44458984 82.62792969 63.45167969 83.75585938 63.45898438 84.91796875 C63.37663517 95.62336483 63.37663517 95.62336483 59 100 C56.32941149 100.14115161 53.67567762 100.04247107 51 100 C51.04640625 101.15757813 51.0928125 102.31515625 51.140625 103.5078125 C51.17816248 105.04684906 51.21456051 106.5859137 51.25 108.125 C51.28351563 108.88554687 51.31703125 109.64609375 51.3515625 110.4296875 C51.46502979 117.01079019 49.31945153 120.39940283 44.9375 125.3125 C40.88589279 128.84131919 36.10986314 128.16127962 31.03393555 128.17700195 C30.11654602 128.18357315 29.19915649 128.19014435 28.25396729 128.19691467 C25.21488362 128.21664229 22.17584934 128.22830855 19.13671875 128.23828125 C18.09886545 128.24235678 17.06101215 128.2464323 15.99170876 128.25063133 C10.49943872 128.27148888 5.00719365 128.28579249 -0.48510742 128.29516602 C-6.15800255 128.30623518 -11.83050595 128.34064205 -17.50326252 128.38033772 C-21.86560293 128.40647894 -26.2278496 128.4148556 -30.59026146 128.41844749 C-32.6814355 128.42331918 -34.7726052 128.43494966 -36.86370277 128.45348549 C-39.79136881 128.47782552 -42.71801577 128.47692126 -45.64575195 128.4699707 C-46.50778732 128.48278076 -47.36982269 128.49559082 -48.25798035 128.50878906 C-53.66092091 128.46208293 -56.68987813 127.55801443 -61 124 C-66.27304355 118.30398505 -65.3641766 110.43724817 -65.140625 103.21875 C-65.09421875 102.1565625 -65.0478125 101.094375 -65 100 C-66.28003906 100.02707031 -67.56007813 100.05414063 -68.87890625 100.08203125 C-72.7578125 100.1640625 -72.7578125 100.1640625 -74.9375 98.6875 C-78.12858488 93.61930637 -77.26382048 87.38865566 -77.3125 81.625 C-77.35600586 79.91957031 -77.35600586 79.91957031 -77.40039062 78.1796875 C-77.46382702 69.86463968 -77.46382702 69.86463968 -75.24609375 65.73046875 C-72.77513932 63.82675951 -71.81296579 63.43225285 -68.75 63.6875 C-67.5125 63.790625 -66.275 63.89375 -65 64 C-65.05800781 63.2265625 -65.11601563 62.453125 -65.17578125 61.65625 C-65.45141089 55.29314298 -65.18951407 50.94642554 -61.58203125 45.62109375 C-58.10490696 42.05811454 -55.14844025 40.81111821 -50.2097168 40.65942383 C-48.28948527 40.65989648 -46.36921089 40.67670764 -44.44921875 40.70703125 C-43.43527542 40.71127609 -42.42133209 40.71552094 -41.37666321 40.71989441 C-38.14666901 40.73665141 -34.91730478 40.77429878 -31.6875 40.8125 C-29.49414965 40.82755066 -27.3007895 40.8412384 -25.10742188 40.85351562 C-19.7380395 40.8865453 -14.36912647 40.93830772 -9 41 C-9 35.06 -9 29.12 -9 23 C-10.65 22.67 -12.3 22.34 -14 22 C-17.92997765 17.74252421 -19.37308193 14.95896016 -19.27734375 9.09765625 C-18.81370299 5.59096486 -17.30716755 3.61074223 -15 1 C-9.95987544 -2.75079037 -5.58173342 -2.37701195 0 0 Z M-60 51 C-61.34642757 53.69285515 -61.14948999 55.80804355 -61.17700195 58.82324219 C-61.18983719 60.0450116 -61.20267242 61.26678101 -61.21589661 62.52557373 C-61.22406524 63.86600336 -61.23150874 65.20643759 -61.23828125 66.546875 C-61.24235678 67.22157082 -61.2464323 67.89626663 -61.25063133 68.59140778 C-61.2714944 72.16445103 -61.28579346 75.73745588 -61.29516602 79.31054688 C-61.30621432 82.99378739 -61.34059415 86.67642106 -61.38033772 90.35944748 C-61.40654157 93.19741911 -61.41486126 96.0352472 -61.41844749 98.87332916 C-61.42566184 100.88852044 -61.45208771 102.90361347 -61.47883606 104.91864014 C-61.60608325 113.83421923 -61.60608325 113.83421923 -57 121 C-52.65356741 124.34854839 -48.64619614 124.42808804 -43.35766602 124.38818359 C-42.49850586 124.39344055 -41.6393457 124.39869751 -40.75415039 124.40411377 C-37.92054948 124.41729265 -35.08751266 124.40858239 -32.25390625 124.3984375 C-30.28002312 124.40045903 -28.30614071 124.40337112 -26.33226013 124.40713501 C-22.19726443 124.41155566 -18.0624633 124.40513627 -13.92749023 124.39111328 C-8.63357052 124.37403284 -3.34010748 124.38385707 1.95379543 124.40183067 C6.02964196 124.41268503 10.10538072 124.40921438 14.18123055 124.4014473 C16.13282386 124.39944928 18.08442703 124.40189055 20.03600883 124.40888596 C22.76702561 124.4165263 25.49730914 124.40485957 28.22827148 124.38818359 C29.03106033 124.39425629 29.83384918 124.40032898 30.66096497 124.40658569 C36.70834465 124.33836476 40.91744658 123.06580424 45.33740234 118.68139648 C48.40457029 113.49623305 47.60968992 106.90847145 47.6015625 101.09765625 C47.60934722 99.73294051 47.61801878 98.36822956 47.62753296 97.00352478 C47.64241439 94.14973205 47.64190695 91.29643434 47.63134766 88.44262695 C47.61975907 84.79943963 47.65362959 81.15828636 47.700037 77.51543522 C47.72961346 74.69876928 47.73124193 71.88258773 47.72501755 69.06579399 C47.7265326 67.07445686 47.75419354 65.0831945 47.78237915 63.09205627 C47.76792287 55.29817406 47.76792287 55.29817406 44.07958984 48.68530273 C39.86585429 44.59687391 36.0997665 44.83045975 30.4387207 44.79125977 C29.55234421 44.78147598 28.66596771 44.7716922 27.75273132 44.76161194 C24.81042997 44.73162444 21.86817426 44.71026129 18.92578125 44.69140625 C17.92135672 44.68483442 16.91693218 44.6782626 15.88207054 44.67149162 C10.56372867 44.63888066 5.24540697 44.61443605 -0.07299805 44.5949707 C-4.47401118 44.577166 -8.87438257 44.54236139 -13.27514648 44.49243164 C-18.58785143 44.43222257 -23.89996182 44.40149347 -29.21299171 44.39179802 C-31.23639653 44.3832419 -33.25978541 44.36441997 -35.28299522 44.3350544 C-38.11994819 44.29610082 -40.95459068 44.29511034 -43.79174805 44.30297852 C-45.03968643 44.2729776 -45.03968643 44.2729776 -46.31283569 44.24237061 C-52.50985287 44.31929932 -55.91542184 46.35796358 -60 51 Z " fill="#232D2F" transform="translate(135,21)"/>
<path d="M0 0 C1.4748864 0.03966133 1.4748864 0.03966133 2.97956848 0.0801239 C6.07691045 0.16691195 9.17294769 0.27639376 12.26953125 0.38671875 C14.38732511 0.45007918 16.50516435 0.51194153 18.62304688 0.57226562 C23.77672768 0.72229434 28.92936882 0.89265934 34.08203125 1.07421875 C34.08203125 1.40421875 34.08203125 1.73421875 34.08203125 2.07421875 C32.9739209 2.08880127 31.86581055 2.10338379 30.72412109 2.1184082 C26.54527232 2.17713349 22.36692149 2.25434899 18.18847656 2.33666992 C16.39266138 2.36957501 14.59675131 2.39770946 12.80078125 2.4206543 C-4.46954882 2.64713463 -19.9826132 3.39075281 -33.16796875 15.76171875 C-45.43360095 28.67391141 -46.37291077 44.99918811 -46.31860352 61.96191406 C-46.32436068 63.60603836 -46.33144938 65.25015844 -46.3397522 66.89427185 C-46.35474187 70.40323047 -46.36065043 73.91203817 -46.35922432 77.42102814 C-46.35717602 82.96759877 -46.37684945 88.51396836 -46.3993988 94.06048584 C-46.44018089 104.81559076 -46.45895141 115.57067907 -46.47557068 126.32584381 C-46.49800577 140.05957822 -46.53136473 153.79326579 -46.58276981 167.52692294 C-46.60271165 173.04423365 -46.61227252 178.56143721 -46.61372197 184.07878256 C-46.61646354 187.49757319 -46.62727228 190.91630398 -46.64023209 194.33506966 C-46.64452617 195.92421733 -46.64536213 197.51337852 -46.64255714 199.10252953 C-46.63917738 201.26447642 -46.64788933 203.42604236 -46.65968323 205.58795166 C-46.66131753 206.79944004 -46.66295183 208.01092842 -46.66463566 209.25912857 C-46.91796875 212.07421875 -46.91796875 212.07421875 -48.91796875 214.07421875 C-49.01154705 191.20357354 -49.08201404 168.33296006 -49.12521744 145.46216202 C-49.14581367 134.8420597 -49.17387798 124.22207658 -49.21972656 113.60205078 C-49.25968441 104.34207093 -49.28542291 95.08217743 -49.29432273 85.82211375 C-49.29952234 80.9221863 -49.31168178 76.02250582 -49.34088898 71.12265778 C-49.36819964 66.50320273 -49.37638234 61.88409454 -49.37039948 57.26456642 C-49.37149275 55.57640251 -49.37935293 53.88822604 -49.39479065 52.20013237 C-49.53090385 36.53756756 -46.55623524 24.12042711 -35.66796875 12.38671875 C-25.53121611 2.80570913 -13.71005714 -0.55218324 0 0 Z " fill="#49B0FB" transform="translate(48.91796875,-0.07421875)"/>
<path d="M0 0 C6.33689264 9.50533896 5.44170486 21.80697557 5.41992188 32.78710938 C5.42727549 34.55264315 5.43586544 36.31817214 5.44558716 38.08369446 C5.46767116 42.84607754 5.47074062 47.60828694 5.46883965 52.37071419 C5.46871938 56.35915245 5.47730579 60.34755465 5.48561716 64.3359828 C5.50480244 73.74989227 5.5077522 83.16371307 5.50097656 92.57763672 C5.49433289 102.26397177 5.51722456 111.94992631 5.55429029 121.63618422 C5.58504681 129.9788174 5.59634107 138.3213285 5.59245348 146.6640172 C5.59039288 151.63531517 5.59575912 156.60631657 5.62034607 161.57756042 C5.64271057 166.25310049 5.64065525 170.9280235 5.62041855 175.60356712 C5.61702609 177.31107761 5.62202084 179.01863046 5.63640213 180.72608376 C5.71477495 190.72740297 4.92415959 199.02543879 0 208 C-0.50838661 208.93226662 -1.01677322 209.86453323 -1.54056549 210.82505035 C-2.02217888 211.54278374 -2.50379227 212.26051712 -3 213 C-3.66 213 -4.32 213 -5 213 C-5.39638672 213.8971875 -5.39638672 213.8971875 -5.80078125 214.8125 C-9.6306357 221.79855372 -18.68475396 226.61265332 -26 229 C-28.62942348 229.18141402 -31.14936876 229.26174096 -33.77644348 229.24050903 C-34.94053876 229.24307231 -34.94053876 229.24307231 -36.12815112 229.24568737 C-38.72460724 229.2489776 -41.32080407 229.2379863 -43.91723633 229.22705078 C-45.78001906 229.22648657 -47.64280224 229.22680343 -49.50558472 229.22793579 C-54.56095148 229.2285099 -59.61622344 229.21674608 -64.67156816 229.20278788 C-69.95533153 229.1902903 -75.23909705 229.18911078 -80.52287292 229.18673706 C-90.52773815 229.18051944 -100.53255969 229.16410477 -110.53740567 229.14403808 C-121.92786711 229.12168789 -133.31833063 229.11068786 -144.70880854 229.10064721 C-168.13922991 229.07973881 -191.56961251 229.04455732 -215 229 C-215 228.67 -215 228.34 -215 228 C-214.07823597 227.99853344 -213.15647194 227.99706688 -212.20677567 227.99555588 C-189.7455388 227.95845332 -167.28445241 227.8993928 -144.82333755 227.81609726 C-133.96116142 227.77634135 -123.09905738 227.74393133 -112.23681641 227.72900391 C-102.76580377 227.71596953 -93.29494998 227.68895926 -83.82402682 227.64538693 C-78.81237869 227.62281235 -73.8009262 227.60708692 -68.78922272 227.60811615 C-64.06461843 227.60886513 -59.34044594 227.59081926 -54.61595345 227.55883217 C-52.88912744 227.55036712 -51.16225282 227.54855997 -49.43541527 227.55419731 C-37.43603922 227.58812879 -27.44667924 226.36710567 -17 220 C-16.15566406 219.69320312 -15.31132812 219.38640625 -14.44140625 219.0703125 C-8.27124412 216.36531342 -3.49738187 209.27044724 -0.73828125 203.25390625 C0.51413273 199.43039902 1.06662276 195.51745812 1.60546875 191.5390625 C2 189 2 189 3 187 C3.10095313 184.79952109 3.1351358 182.59589923 3.14044189 180.39311218 C3.14341302 179.70637179 3.14638414 179.01963139 3.1494453 178.31208068 C3.15815133 175.99930137 3.1596422 173.68657372 3.16113281 171.3737793 C3.16576 169.71972035 3.17078453 168.06566247 3.17617798 166.41160583 C3.18932205 161.90686324 3.19575198 157.40213556 3.20018864 152.89737678 C3.2031189 150.08008419 3.20722384 147.26279568 3.21169281 144.44550514 C3.22537911 135.62326122 3.23503763 126.80102662 3.2388947 117.97877282 C3.24336465 107.81092303 3.26085816 97.64320839 3.2898953 87.47539967 C3.31157428 79.60940107 3.32160245 71.74344028 3.32293582 63.87741214 C3.32398031 59.18377765 3.32981079 54.49027 3.34775543 49.7966671 C3.36434159 45.37173073 3.36634093 40.94701504 3.35761642 36.52205849 C3.35685139 34.90689118 3.36111742 33.2917115 3.37107468 31.67657471 C3.42121753 23.02823446 2.94510198 15.04968757 0.64371872 6.63497639 C0 4 0 4 0 0 Z " fill="#2669BC" transform="translate(251,27)"/>
<path d="M0 0 C3.71165216 1.68711462 5.85739946 3.55391769 8 7 C8.34057617 9.47363281 8.34057617 9.47363281 8.29296875 12.203125 C8.28330078 13.1828125 8.27363281 14.1625 8.26367188 15.171875 C8.23853516 16.18765625 8.21339844 17.2034375 8.1875 18.25 C8.16719727 19.796875 8.16719727 19.796875 8.14648438 21.375 C8.11117607 23.91719792 8.06186036 26.45833223 8 29 C6.02 29 4.04 29 2 29 C2 28.34 2 27.68 2 27 C1.154375 27.515625 0.30875 28.03125 -0.5625 28.5625 C-4.68668132 30.28715764 -6.72260389 30.18816558 -11 29 C-14.23805586 26.7844881 -14.8984844 25.34895988 -16 21.5625 C-16 18 -16 18 -14.1875 15.125 C-10.82189787 11.85555793 -8.96456411 11.88413298 -4.375 11.9375 C-2.87066406 11.95103516 -2.87066406 11.95103516 -1.3359375 11.96484375 C-0.56507812 11.97644531 0.20578125 11.98804688 1 12 C0.34 10.35 -0.32 8.7 -1 7 C-6.55053286 7.74359673 -6.55053286 7.74359673 -12 9 C-12.66 7.35 -13.32 5.7 -14 4 C-9.10758872 0.8049559 -6.02291176 -0.78074782 0 0 Z " fill="#ECEFF4" transform="translate(48,182)"/>
<path d="M0 0 C3.24044458 2.56535196 4.69560167 4.086805 6 8 C6 10.64 6 13.28 6 16 C0.06 16 -5.88 16 -12 16 C-11.34 17.65 -10.68 19.3 -10 21 C-5.1187761 21.95710273 -2.53147269 21.88811362 2 20 C2.99 20.66 3.98 21.32 5 22 C3.97467587 24.97343996 3.00202083 25.99860466 0.375 27.8125 C-3.70918937 29.24952959 -6.92482635 29.33133163 -11 28 C-14.19789612 26.16860575 -16.4401333 23.91614551 -18.375 20.75 C-19.61014365 15.31536795 -19.95837044 10.20562854 -17.375 5.125 C-12.67585657 -1.05808346 -7.25459072 -2.21779385 0 0 Z " fill="#EFF0F3" transform="translate(116,183)"/>
<path d="M0 0 C2.31 0 4.62 0 7 0 C7 3.96 7 7.92 7 12 C8.32 11.34 9.64 10.68 11 10 C15.04731569 9.47208926 16.71493159 9.83864052 20.3125 11.875 C23 14 23 14 24 16 C24.08449628 17.7404417 24.10723024 19.48409722 24.09765625 21.2265625 C24.09443359 22.2578125 24.09121094 23.2890625 24.08789062 24.3515625 C24.07951172 25.43179688 24.07113281 26.51203125 24.0625 27.625 C24.05798828 28.71296875 24.05347656 29.8009375 24.04882812 30.921875 C24.03701776 33.61463789 24.02054778 36.30729188 24 39 C22.02 39 20.04 39 18 39 C17.97494385 38.39937744 17.9498877 37.79875488 17.92407227 37.17993164 C17.8084472 34.47388563 17.68557064 31.76821717 17.5625 29.0625 C17.52318359 28.11697266 17.48386719 27.17144531 17.44335938 26.19726562 C17.40146484 25.29814453 17.35957031 24.39902344 17.31640625 23.47265625 C17.27974854 22.64000244 17.24309082 21.80734863 17.20532227 20.94946289 C17.20632897 18.99661142 17.20632897 18.99661142 16 18 C13.36 18 10.72 18 8 18 C7.67 24.93 7.34 31.86 7 39 C4.69 39 2.38 39 0 39 C0 26.13 0 13.26 0 0 Z " fill="#EAECF1" transform="translate(170,172)"/>
<path d="M0 0 C7.59 0 15.18 0 23 0 C23 2.31 23 4.62 23 7 C17.72 7 12.44 7 7 7 C7 10.3 7 13.6 7 17 C11.95 17 16.9 17 22 17 C22 18.98 22 20.96 22 23 C17.05 23 12.1 23 7 23 C7 28.28 7 33.56 7 39 C4.69 39 2.38 39 0 39 C0 26.13 0 13.26 0 0 Z " fill="#EBEEF3" transform="translate(73,172)"/>
<path d="M0 0 C1.98 0 3.96 0 6 0 C8.44534442 5.62429216 10.73573467 11.30029761 13 17 C14.98 11.39 16.96 5.78 19 0 C21.31 0 23.62 0 26 0 C14.43371634 35.53948659 14.43371634 35.53948659 9 40 C5.25 40.25 5.25 40.25 2 40 C2 38.35 2 36.7 2 35 C3.65 34.34 5.3 33.68 7 33 C8.7249557 25.46799446 6.77136252 20.2172946 4.0625 13.125 C3.301152 11.0659286 2.5419246 9.00607145 1.78515625 6.9453125 C1.27287476 5.59203857 1.27287476 5.59203857 0.75024414 4.21142578 C0 2 0 2 0 0 Z " fill="#EBEDF0" transform="translate(209,183)"/>
<path d="M0 0 C3.02728548 2.04165765 3.749313 3.34120808 4.6875 6.8125 C1.6875 8.8125 1.6875 8.8125 -1.3125 8.8125 C-1.76625 8.3175 -2.22 7.8225 -2.6875 7.3125 C-4.26025911 5.58912418 -4.26025911 5.58912418 -6.8125 5.375 C-9.39719014 5.60006665 -9.39719014 5.60006665 -11.125 7.4375 C-12.66090106 10.50930212 -12.72916929 12.40970082 -12.3125 15.8125 C-11.50042354 18.77743065 -11.50042354 18.77743065 -9.3125 20.8125 C-6.51683068 21.24811711 -4.16777063 21.04653858 -1.3125 20.8125 C-1.3125 20.1525 -1.3125 19.4925 -1.3125 18.8125 C3.5625 20.5625 3.5625 20.5625 4.6875 22.8125 C0.04501295 27.78659326 0.04501295 27.78659326 -3.3125 28.8125 C-9.45188868 28.8125 -12.44690839 27.47879946 -16.96484375 23.3828125 C-20.1029919 19.72618769 -19.64193148 15.10214103 -19.59375 10.54296875 C-19.19761371 6.69714557 -17.91757679 4.62879923 -15.3125 1.8125 C-10.42060137 -2.1539043 -5.80400984 -2.08068277 0 0 Z " fill="#EDEEF2" transform="translate(162.3125,183.1875)"/>
<path d="M0 0 C2.8125 2.5 2.8125 2.5 5 5 C5.33 5.33 5.66 5.66 6 6 C6.55814884 11.69311817 5.60179115 14.5749423 2 19 C-1.7373856 21.4915904 -3.57331583 21.45793285 -8 21 C-10.75329021 19.20437595 -12.52627461 17.94745078 -14 15 C-14.52999351 11.21433208 -14.83021253 7.55143964 -12.98828125 4.109375 C-9.05299331 -0.75950978 -5.93132954 -1.66077227 0 0 Z " fill="#272D2A" transform="translate(159,88)"/>
<path d="M0 0 C3.04997956 2.65215614 4.64908912 4.26375398 5.44921875 8.22265625 C5.64724725 12.312969 5.32964546 14.47256727 3.125 18 C0.38262878 20.58105526 -0.51262207 20.95402095 -4.3125 21.3125 C-8.60422883 20.94879417 -9.99912082 20.00087918 -13 17 C-15.50304378 13.24543433 -15.45280074 11.45254066 -15 7 C-13.25226375 3.56925846 -11.92801207 1.56169152 -8.625 -0.4375 C-5.24691861 -1.16137458 -3.29640796 -1.09880265 0 0 Z " fill="#282F2C" transform="translate(106,88)"/>
<path d="M0 0 C1.98 0 3.96 0 6 0 C6 2.64 6 5.28 6 8 C8.31 8 10.62 8 13 8 C13 9.65 13 11.3 13 13 C10.69 13 8.38 13 6 13 C6.33 18.28 6.66 23.56 7 29 C10 30.33333333 10 30.33333333 13 29 C13 31.31 13 33.62 13 36 C11.39667209 36.08121924 9.79215974 36.13929134 8.1875 36.1875 C6.84751953 36.23970703 6.84751953 36.23970703 5.48046875 36.29296875 C3 36 3 36 1.36328125 34.7734375 C-0.39828772 32.4818836 -0.34774816 31.19882058 -0.29296875 28.33203125 C-0.28330078 27.43935547 -0.27363281 26.54667969 -0.26367188 25.62695312 C-0.23853516 24.69818359 -0.21339844 23.76941406 -0.1875 22.8125 C-0.17396484 21.87212891 -0.16042969 20.93175781 -0.14648438 19.96289062 C-0.11113096 17.64134962 -0.06178674 15.32096347 0 13 C-1.65 13 -3.3 13 -5 13 C-5 11.35 -5 9.7 -5 8 C-3.35 8 -1.7 8 0 8 C0 5.36 0 2.72 0 0 Z " fill="#EEF0F2" transform="translate(128,175)"/>
<path d="M0 0 C2.31 0 4.62 0 7 0 C7 12.87 7 25.74 7 39 C4.69 39 2.38 39 0 39 C0 26.13 0 13.26 0 0 Z " fill="#E3E8F0" transform="translate(199,172)"/>
<path d="M0 0 C1.4748864 0.03966133 1.4748864 0.03966133 2.97956848 0.0801239 C6.07691045 0.16691195 9.17294769 0.27639376 12.26953125 0.38671875 C14.38732511 0.45007918 16.50516435 0.51194153 18.62304688 0.57226562 C23.77672768 0.72229434 28.92936882 0.89265934 34.08203125 1.07421875 C34.08203125 1.40421875 34.08203125 1.73421875 34.08203125 2.07421875 C32.9739209 2.08880127 31.86581055 2.10338379 30.72412109 2.1184082 C26.54527232 2.17713349 22.36692149 2.25434899 18.18847656 2.33666992 C16.39266138 2.36957501 14.59675131 2.39770946 12.80078125 2.4206543 C-4.46954882 2.64713463 -19.9826132 3.39075281 -33.16796875 15.76171875 C-37.65337805 20.4418435 -40.52404783 25.07968506 -42.91796875 31.07421875 C-43.39363281 32.2653125 -43.39363281 32.2653125 -43.87890625 33.48046875 C-44.59002523 35.33329251 -45.25926693 37.20211885 -45.91796875 39.07421875 C-46.90796875 38.41421875 -47.89796875 37.75421875 -48.91796875 37.07421875 C-44.71822211 22.47392307 -37.8719843 12.4861585 -24.93359375 4.43359375 C-16.73975346 0.73999735 -8.90981981 -0.35884994 0 0 Z " fill="#62B9F8" transform="translate(48.91796875,-0.07421875)"/>
<path d="M0 0 C2.00692599 0.99898325 4.00902984 2.00467365 6 3.03515625 C6.66 3.37417969 7.32 3.71320313 8 4.0625 C8.99 4.57490234 8.99 4.57490234 10 5.09765625 C17.93732248 8.67875292 24.86678994 7.00831019 32.6796875 4.0703125 C35.12691655 3.10368727 35.12691655 3.10368727 37 1 C38.32 1 39.64 1 41 1 C40.44502696 4.88481128 39.0784579 6.59730115 36 9 C28.09842007 13.36155263 19.97161762 14.55311891 11.19140625 12.26953125 C6.12553565 10.42534359 2.19384231 8.40529973 -1 4 C-0.8125 1.6875 -0.8125 1.6875 0 0 Z " fill="#2F332A" transform="translate(108,120)"/>
<path d="M0 0 C1.98 0 3.96 0 6 0 C8.58955157 2.58955157 7.18558792 9.95177603 7.1875 13.4375 C7.19974609 14.60861328 7.21199219 15.77972656 7.22460938 16.98632812 C7.22654297 18.10330078 7.22847656 19.22027344 7.23046875 20.37109375 C7.23457764 21.40161865 7.23868652 22.43214355 7.24291992 23.49389648 C7 26 7 26 5 28 C3.35 28 1.7 28 0 28 C0 18.76 0 9.52 0 0 Z " fill="#EBB413" transform="translate(186,89)"/>
<path d="M0 0 C1.98 0 3.96 0 6 0 C6 9.24 6 18.48 6 28 C4.35 28 2.7 28 1 28 C-1 26 -1 26 -1.24291992 23.49389648 C-1.23881104 22.46337158 -1.23470215 21.43284668 -1.23046875 20.37109375 C-1.22853516 19.25412109 -1.22660156 18.13714844 -1.22460938 16.98632812 C-1.21236328 15.81521484 -1.20011719 14.64410156 -1.1875 13.4375 C-1.18685547 12.26251953 -1.18621094 11.08753906 -1.18554688 9.87695312 C-1.14012141 1.14012141 -1.14012141 1.14012141 0 0 Z " fill="#EABC18" transform="translate(64,89)"/>
<path d="M0 0 C3.05623277 2.09110663 3.86463014 3.29306849 4.5625 6.9375 C3.7998726 11.08958249 2.40406682 12.55795207 -1 15 C-4.55953149 15.07119063 -6.22119455 14.7009249 -8.875 12.3125 C-10.35810604 9.26389315 -10.48891657 7.35257076 -10 4 C-7.21921757 -0.06422047 -4.81255755 -0.80209293 0 0 Z " fill="#F3C319" transform="translate(131,25)"/>
<path d="M0 0 C1.98 0 3.96 0 6 0 C6 9.24 6 18.48 6 28 C4.02 28 2.04 28 0 28 C0 18.76 0 9.52 0 0 Z " fill="#F2F3F4" transform="translate(61,183)"/>
<path d="M0 0 C6.03085058 0.38291115 10.53960349 1.37845565 15.95703125 4.0625 C17.96877903 4.98567298 19.85632442 5.4780991 22 6 C24.01526169 6.96887581 26.01833966 7.9641321 28 9 C28 9.66 28 10.32 28 11 C28.87398437 11.17982422 28.87398437 11.17982422 29.765625 11.36328125 C33.40804384 12.40124326 36.37507922 14.26661142 39 17 C39.4375 20.3125 39.4375 20.3125 39 23 C38.43410156 22.566875 37.86820313 22.13375 37.28515625 21.6875 C36.18494141 20.8521875 36.18494141 20.8521875 35.0625 20 C34.33160156 19.443125 33.60070312 18.88625 32.84765625 18.3125 C31.24185632 16.90348055 31.24185632 16.90348055 30 17 C30.39832031 17.54527344 30.79664063 18.09054688 31.20703125 18.65234375 C36.44098259 26.1021285 39.58766238 32.79328934 39 42 C38.67 42 38.34 42 38 42 C37.85304687 41.26136719 37.70609375 40.52273437 37.5546875 39.76171875 C34.43880724 25.66862816 27.86711279 14.7044818 15.87890625 6.578125 C10.87491907 3.83509811 5.50959314 2.39035187 0 1 C0 0.67 0 0.34 0 0 Z " fill="#D9D6D1" transform="translate(217,0)"/>
<path d="M0 0 C2.92173298 1.46086649 3.05834898 3.41230017 4.1875 6.4375 C9.67249399 19.86297949 17.28822957 27.31374992 30.625 32.9375 C32.41186233 33.63739192 34.20187764 34.32956606 36 35 C36 35.33 36 35.66 36 36 C31.02693484 35.50269348 27.36200187 34.44697666 23 32 C23.495 32.495 23.495 32.495 24 33 C24.33 33.99 24.66 34.98 25 36 C21.875 36.5 21.875 36.5 18 36 C12.17966595 31.02339988 9.23328914 22.74471069 6 16 C5.06360314 14.20775654 4.1261817 12.41604784 3.1875 10.625 C1.40832697 7.08946385 0.31545503 3.99576366 0 0 Z " fill="#DEDCDA" transform="translate(0,220)"/>
<path d="M0 0 C0.33 0 0.66 0 1 0 C0.84694977 8.87691323 -2.84684234 15.37684116 -7 23 C-7.66 23 -8.32 23 -9 23 C-9.26425781 23.598125 -9.52851563 24.19625 -9.80078125 24.8125 C-13.58231747 31.71041623 -22.72038517 36.76011851 -30 39 C-33.3125 39.125 -33.3125 39.125 -36 39 C-33.34005104 37.22670069 -31.27883659 36.31173429 -28.3125 35.25 C-17.01913916 30.78518292 -9.18687241 22.44297098 -4.06640625 11.54296875 C-2.48157833 7.76376371 -1.16671427 3.92698951 0 0 Z " fill="#7E7E82" transform="translate(255,217)"/>
<path d="M0 0 C0.99 0.33 1.98 0.66 3 1 C0.33333333 7.66666667 -2.33333333 14.33333333 -5 21 C-5.99 20.34 -6.98 19.68 -8 19 C-5.9094278 12.22788048 -3.81609706 5.99672394 0 0 Z " fill="#70C0F9" transform="translate(8,18)"/>
<path d="M0 0 C3.3 0 6.6 0 10 0 C9.25 4.75 9.25 4.75 7 7 C4 7.25 4 7.25 1 7 C0.34 6.34 -0.32 5.68 -1 5 C-0.625 2.375 -0.625 2.375 0 0 Z " fill="#429AEB" transform="translate(40,199)"/>
<path d="M0 0 C3.625 0.375 3.625 0.375 7 1 C7.66 2.65 8.32 4.3 9 6 C5.04 6 1.08 6 -3 6 C-2 2 -2 2 0 0 Z " fill="#3B91E7" transform="translate(107,188)"/>
<path d="M0 0 C1.67542976 0.28604898 3.34385343 0.61781233 5 1 C5.33 2.65 5.66 4.3 6 6 C3.6875 7.125 3.6875 7.125 1 8 C0.01 7.34 -0.98 6.68 -2 6 C-1.125 1.125 -1.125 1.125 0 0 Z " fill="#E6EBF4" transform="translate(62,171)"/>
<path d="M0 0 C13.86 0.33 27.72 0.66 42 1 C42 1.33 42 1.66 42 2 C21.21 2.495 21.21 2.495 0 3 C0 2.01 0 1.02 0 0 Z " fill="#49ADF8" transform="translate(41,0)"/>
<path d="M0 0 C0.19335938 0.78503906 0.38671875 1.57007813 0.5859375 2.37890625 C1.96653221 7.9491275 3.37388447 13.49622437 5 19 C4.34 19 3.68 19 3 19 C1.99095625 16.7536764 0.9926398 14.50356063 0 12.25 C-0.28617187 11.61578125 -0.57234375 10.9815625 -0.8671875 10.328125 C-2.36006702 6.91582896 -3 4.79218083 -3 1 C-1 0 -1 0 0 0 Z " fill="#53A4F0" transform="translate(3,214)"/>
<path d="M0 0 C4.95 0.33 9.9 0.66 15 1 C15 1.33 15 1.66 15 2 C10.05 2.33 5.1 2.66 0 3 C0 2.01 0 1.02 0 0 Z " fill="#56B2F7" transform="translate(41,0)"/>
<path d="M0 0 C0 0.99 0 1.98 0 3 C-2.375 3.625 -2.375 3.625 -5 4 C-5.66 3.34 -6.32 2.68 -7 2 C-4.35261084 0.5393715 -3.10551666 0 0 0 Z " fill="#79C1F7" transform="translate(30,3)"/>
<path d="" fill="#E4DFD8" transform="translate(0,0)"/>
</svg>
